<svg xmlns="http://www.w3.org/2000/svg" width="25" height="25" viewBox="0 0 25 25">
    <defs>
        <style>
            .a {
                fill: red;
            }
        </style>
    </defs>
    <path class="a" d="M0,12.5A12.5,12.5,0,1,1,12.5,25,12.514,12.514,0,0,1,0,12.5Zm3.126,0A9.375,9.375,0,1,0,12.5,3.125,9.374,9.374,0,0,0,3.126,12.5Zm11.583,4.42L12.5,14.71l-2.209,2.209A1.562,1.562,0,0,1,8.082,14.71L10.291,12.5,8.082,10.29a1.563,1.563,0,0,1,2.209-2.211L12.5,10.29l2.209-2.211a1.563,1.563,0,0,1,2.209,2.211L14.709,12.5l2.209,2.211a1.562,1.562,0,1,1-2.209,2.209Z" />
</svg>