<svg xmlns="http://www.w3.org/2000/svg" width="16" height="16" viewBox="0 0 16 16">
    <defs>
        <style>
            .a {
                fill: #2699fb;
            }
        </style>
    </defs>
    <path class="a" d="M140,463v-1h-1a1,1,0,0,1,0-2h1v-1a1,1,0,0,1,2,0v1h1a1,1,0,0,1,0,2h-1v1a1,1,0,1,1-2,0Zm-10,1a2.006,2.006,0,0,1-2-2V451a2.006,2.006,0,0,1,2-2h1.271a1.994,1.994,0,0,1,1.73-1h4a1.994,1.994,0,0,1,1.73,1H140a2.006,2.006,0,0,1,2,2v4a1,1,0,1,1-2,0v-4h-1a2.006,2.006,0,0,1-2,2h-4a2.006,2.006,0,0,1-2-2h-1v11h5a1,1,0,0,1,0,2Zm3-13h4v-1h-4Zm0,9a1,1,0,1,1,0-2h2a1,1,0,1,1,0,2Zm0-3a1,1,0,0,1,0-2h4a1,1,0,1,1,0,2Z" transform="translate(-128 -448)" />
</svg>