<?xml version="1.0" encoding="UTF-8"?><svg id="Camada_1" xmlns="http://www.w3.org/2000/svg" xmlns:xlink="http://www.w3.org/1999/xlink" viewBox="0 0 298.42 298.42"><defs><style>.cls-1{fill:#fff;}.cls-2{fill:url(#Gradiente_sem_nome_79);}.cls-3{fill:#2ec2c6;}.cls-4{fill:#027d8e;}</style><linearGradient id="Gradiente_sem_nome_79" x1="147.48" y1="172.75" x2="147.48" y2="83.01" gradientUnits="userSpaceOnUse"><stop offset="0" stop-color="#ff0"/><stop offset="1" stop-color="#ff4000"/></linearGradient></defs><circle class="cls-1" cx="149.21" cy="149.21" r="149.21"/><path class="cls-2" d="m206.81,143.03c-.17,4.41-.13,8.82-1.38,13.1-.49,1.69-1.03,3.37-1.72,4.99-.65,1.52-1.86,2.37-3.59,2.61-3.82.53-7.62,1.13-11.41,1.82-2.76.5-5.06,2.09-6.87,4.08-1.89,2.09-2.8,3.28-6.54,3.12-1.31.02-44.04.02-45.16.01-5.19-.24-5.27.08-7.83-.94-1.3-.52-2.46-1.53-3.66-2.26-1.5-.91-2.89-2.02-4.41-2.9-2.03-1.18-4.37-1.35-6.62-1.71-4.73-.76-9.49-1.38-14.24-2.01-1.42-.19-2.05-.97-2.47-2.28-1.34-4.08-1.87-8.28-2.42-12.51-.61-4.75-.28-9.41.31-14.13.54-4.34,1.34-8.57,3.06-12.56,1.37-3.16,2.95-6.26,4.75-9.2,2.54-4.15,5.18-8.22,8.76-11.66,5.35-5.14,11.38-9.18,18.18-12.06,3.23-1.37,6.53-2.74,9.93-3.55,3.93-.94,7.98-1.5,12.01-1.81,5.49-.42,10.96.01,16.34,1.37,5.57,1.4,10.86,3.44,15.7,6.52,2.91,1.85,5.86,3.7,8.53,5.86,4.01,3.24,7.61,6.93,10.36,11.35,1.43,2.3,2.99,4.54,4.21,6.95,2.52,4.97,4.61,10.14,5.36,15.69.54,4.01.57,8.09.82,12.13Z"/><path class="cls-3" d="m56.75,224.47c1.39-.45,2.76-1.03,4.19-1.32,4.17-.87,8.37-1.64,12.56-2.42.73-.13,1.49-.14,2.23-.14,3.46-.02,6.92-.1,10.38.02,2.77.09,5.53.43,8.29.67.34.03.67.1,1.01.1,5.38-.08,10.63,1.09,15.95,1.58,5.59.52,11.17,1.2,16.75,1.75,5.39.54,10.77,1.24,16.17,1.45,5.48.21,10.98.02,16.46-.19,9.05-.35,17.79-2.64,26.65-4.24,4.65-.84,9.4-1.11,14.12-1.51,2.16-.18,4.34,0,6.51-.08,5.51-.21,10.98.29,16.42.96,4.9.61,9.76,1.51,14.62,2.35,1.1.19,2.26.42,3.27,1.46-.39.55-.72,1.11-1.14,1.6-.48.57-1.2,1-1.51,1.64-1.03,2.17-2.98,2.13-4.86,2.07-3.38-.11-6.76-.33-10.14-.57-2.77-.19-5.52-.55-8.29-.7-2.64-.15-5.29-.11-7.93-.17-6.18-.14-12.31.48-18.44,1.19-5.51.64-11.01,1.41-16.52,2.02-2.42.27-4.86.37-7.3.43-4.53.12-9.07.19-13.6.2-3.52,0-7.04,0-10.55-.18-5.27-.28-10.54-.68-15.8-1.11-6.4-.53-12.8-1.16-19.2-1.73-4.18-.37-8.36-.73-12.54-1.09-.07,0-.14-.02-.2-.02-5.35.2-10.69.38-16.04.62-2.09.09-4.18.35-6.28.47-3.04.18-6.09.29-9.13.46-1.02.06-1.83-.24-2.53-1.01-1.22-1.34-2.49-2.63-3.74-3.93.05-.21.1-.42.15-.63Z"/><path class="cls-4" d="m44.86,205.19c-.04-1.42.99-1.65,1.86-1.89,2.29-.63,4.58-1.24,6.9-1.73,6.96-1.47,13.89-3.11,20.9-4.22,5.01-.8,10.13-.77,15.13.55,5.5,1.45,11.02,2.84,16.49,4.4,4.36,1.25,8.63,2.82,13,4.04,4.63,1.29,9.29,2.53,14,3.44,3.44.66,6.98.96,10.49,1.01,4.94.07,9.9-.09,14.83-.42,7.1-.47,14.09-1.81,21.03-3.35,6.21-1.38,12.36-3.06,18.56-4.52,4.48-1.05,8.95-2.32,13.5-2.83,3.65-.4,7.39-.88,11.14-.32,2.47.37,5,.24,7.49.53,4.23.49,8.45,1.09,12.66,1.74,2.88.44,5.73,1.05,8.58,1.59.53.1,1.07.22,1.57.42.66.26,1.22.71,1.1,1.51-.12.76-.79.84-1.41.88-1.96.13-3.92.32-5.88.36-11.19.17-22.38.22-33.56.51-3.02.08-6.04.77-9.03,1.32-8.98,1.67-17.95,3.43-26.93,5.14-4.06.77-8.1,1.63-12.18,2.24-3.27.49-6.59.84-9.89.96-4.68.16-9.36.13-14.04.02-5.36-.12-10.63-1.09-15.87-2.16-6.83-1.39-13.66-2.77-20.48-4.24-3.57-.77-7.09-1.76-10.65-2.58-3.43-.79-6.83-1.64-10.41-1.65-11.87-.05-23.73-.19-35.6-.3-.88,0-1.76-.06-2.64-.13-.18-.01-.35-.17-.66-.34Z"/><path class="cls-4" d="m216.12,247.92c-.95,1.14-2.18,1.98-3.5,2.59-5.22,2.43-10.7,3.83-16.48,3.92-7.48.12-14.89-.68-22.2-2.18-5.77-1.18-11.45-2.8-17.22-4.01-7.17-1.49-14.36-1.74-21.53.25-4.76,1.33-9.54,2.6-14.37,3.68-7.04,1.57-14.2,2.04-21.41,1.85-3.94-.11-7.58-1.31-11.04-3.14-1.44-.76-2.88-1.51-4.31-2.29-.45-.25-.86-.59-1.23-.84.15-1.08.83-1.16,1.53-1.15,1.22,0,2.45.1,3.66.04,4.19-.22,8.38-.56,12.57-.72,7.08-.27,13.93-1.93,20.85-3.22,4.26-.79,8.53-1.67,12.83-2,5.74-.44,11.52-.71,17.26-.45,8.66.4,17.2,1.87,25.69,3.73,4.48.98,8.99,1.93,13.65,1.93,2.42,0,4.84.49,7.26.78,4.58.56,9.17.82,13.79.72,1.34-.03,2.69,0,4.03,0,.05.17.1.35.15.52Z"/><path class="cls-3" d="m108.05,262.45c.6-.2.78-.32.96-.32,6.62-.06,12.98-1.82,19.43-2.97,3.92-.7,7.82-1.56,11.85-1.6,3.92-.04,7.85-.21,11.77-.4,3.84-.18,7.51.9,11.25,1.46,7.49,1.13,14.97,2.3,22.47,3.39,1.2.17,2.44.04,3.66.07.31,0,.62.11,1.47.28-.89.53-1.33.92-1.85,1.09-5.03,1.63-10.1,2.99-15.37,3.7-5.63.76-11.06-.16-16.54-1.08-2.94-.5-5.87-1-8.82-1.39-2.24-.29-4.46.03-6.64.59-2.36.6-4.71,1.38-7.11,1.69-2.94.38-5.95.58-8.91.43-3.64-.18-7.31-.56-10.74-1.95-2.19-.88-4.33-1.87-6.87-2.98Z"/><path class="cls-3" d="m29.27,165.86c.45-1.21,1.27-1.67,2.21-1.89,2.3-.53,4.6-1.12,6.94-1.47,4.94-.75,9.9-1.44,14.86-2,5.73-.65,11.46-.34,17.2.19,4.33.4,8.58,1.08,12.79,2.13,6.5,1.61,13,3.11,19.18,5.88,3.68,1.64,7.68,2.55,11.55,3.77.97.3,2.01.41,2.93.81.44.2.97.92.92,1.34-.05.44-.7,1.09-1.16,1.16-1.19.18-2.44.23-3.65.1-6.45-.72-12.9-1.45-19.19-3.15-1.37-.37-2.73-.81-4.06-1.29-4.74-1.74-9.76-2.21-14.67-3.11-2.25-.41-4.58-.46-6.88-.48-9.09-.06-18.18.1-27.26-.13-3.62-.09-7.23-.95-10.83-1.48-.25-.04-.48-.2-.87-.37Z"/><path class="cls-4" d="m184.07,173.97c.62-.3,1.2-.73,1.86-.89,7.92-1.94,15.41-5.16,23.06-7.88,5.64-2.01,11.4-3.47,17.37-3.99,4.31-.38,8.62-.8,12.94-1,2.42-.12,4.87.07,7.3.29,3.43.3,6.87.62,10.27,1.18,3.8.63,7.55,1.53,11.32,2.34.51.11.99.39,1.45.58.25,1.2-.51,1.5-1.31,1.75-2.86.89-5.76,1.47-8.77,1.47-9.5,0-18.99-.03-28.49,0-1.89,0-3.79.18-5.66.46-3.41.52-6.83,1.04-10.19,1.81-4.03.91-7.96,2.21-12,3.09-4.16.91-8.36,1.71-12.58,2.17-2.08.23-4.26-.43-6.39-.69-.06-.23-.12-.46-.18-.69Z"/><path class="cls-4" d="m192.71,192.41c-6.69.67-14.96,1.34-20.94,1.35-11.76.02-29.2-2.92-52.26-6.95-8.79-1.54-14.06-3.01-17.21-4.25-4.89-1.25-9.77-2.58-14.66-3.86-6.04-1.58-12.18-2.59-18.59-2.85-2.22.16-4.62.12-6.94.54-5.86,1.06-11.71,2.21-17.51,3.54-2.35.54-4.6,1.59-6.85,2.51-1.18.48-1.95,1.46-2.26,2.72-.26,1.07.24,1.74,1.33,1.76.46,0,.93-.15,1.4-.22,3.08-.45,6.15-1.08,9.24-1.3,4.59-.33,9.21-.42,13.81-.51,3.87-.08,7.74.14,11.6-.05,6.7-.33,13.05,1.26,19.34,3.22,3.75,1.17,7.44,2.55,11.17,3.78,5.43,1.79,11.02,2.79,16.71,3.26,1.75.15,3.49.43,5.23.64,2.62.32,5.23.68,7.86.96,2.02.22,4.05.36,6.07.49,3.44.23,6.89.6,10.33.59,3.44-.02,6.88-.48,10.33-.67,5.9-.31,11.7-1.27,17.5-2.34,3.79-.7,7.61-1.27,11.43-1.77,2.44-.32,4.86-.72,7.26-1.24-1.13.24-2.26.46-3.39.65Z"/><path class="cls-4" d="m198.8,191.1c-.33.09-.67.17-1,.26.33-.08.67-.17,1-.26Z"/><path class="cls-3" d="m263.02,184.14c-.38-.42-1.03-.65-1.6-.85-4.53-1.61-9-3.37-13.71-4.46-7.29-1.69-14.6-3.04-22.12-2.53-2.09.14-4.16.56-6.25.74-5.18.45-10.13,1.86-14.94,3.73-5.66,2.2-11.47,3.84-17.5,4.33-6.75.54-13.53.74-20.3.86-4.6.08-9.21-.22-13.81-.39-2.84-.11-5.68-.27-8.52-.44-5.81-.35-11.61-.83-17.43-1.05-5.29-.19-10.59-.05-15.88-.16-1.95-.04-3.95-.17-5.84-.64-.95-.23-1.89-.49-2.83-.73,3.16,1.24,8.42,2.71,17.21,4.25,23.06,4.03,40.5,6.97,52.26,6.95,5.98,0,14.25-.69,20.94-1.35,2.98-.5,5.92-1.14,8.82-2.11,4.75-1.59,9.61-2.83,14.43-4.23,4.54-1.32,9.22-1.43,13.89-1.5,1.69-.03,3.38.22,5.07.3,3.45.15,6.9.26,10.36.4,5.61.22,11.24.26,16.8,1.24.67.12,1.35-.08,1.44-.77.07-.51-.16-1.2-.51-1.58Z"/><path d="m40.79,128.15l-1.97,10.61-7.5-1.39,5.63-30.35,7.5,1.39-2,10.78,31.99,5.94-1.66,8.97-31.99-5.94Z"/><path d="m81.76,70.94c10.63,7.77,12.37,18.93,5.44,28.41-7.03,9.62-18.41,9.94-27.65,3.19-9.72-7.1-12.45-18.62-5.45-28.19,7.28-9.96,18.71-9.94,27.66-3.4Zm-16.69,23.75c6.35,4.64,13,4.93,16.59.02,3.62-4.96.98-11.24-5.32-15.85-5.82-4.25-12.86-5.12-16.56-.07-3.62,4.95-1.02,11.29,5.28,15.9Z"/><path d="m127.07,47.46c5.29,12.06,1.18,22.58-9.57,27.29-10.91,4.79-20.91-.65-25.51-11.13-4.83-11.02-1.41-22.35,9.45-27.11,11.3-4.95,21.17.8,25.62,10.95Zm-26.36,12.15c3.16,7.2,8.77,10.79,14.33,8.35,5.62-2.47,6.5-9.23,3.36-16.37-2.9-6.6-8.55-10.89-14.28-8.38-5.62,2.46-6.55,9.25-3.42,16.4Z"/><path d="m147.2,35.04l-10.78-.4.28-7.62,30.85,1.14-.28,7.62-10.96-.41-1.2,32.51-9.11-.34,1.21-32.51Z"/><path d="m198.18,64.66l-13.36-6.32-4.08,8.62,14.92,7.06-3.19,6.73-23.16-10.96,17.18-36.31,22.41,10.6-3.19,6.73-14.17-6.7-3.57,7.54,13.36,6.32-3.16,6.68Z"/><path d="m218.87,108.07c-2.5-1.58-6.84-4.9-10.17-9.03-4.59-5.71-6.48-11-6.01-16.12.38-5.04,3.19-9.91,7.83-13.56,10.44-8.32,22.47-5.53,30.72,4.73,3.25,4.04,4.96,7.79,5.45,9.91l-6.86,3.07c-.64-2.32-1.75-4.94-4.52-8.37-4.74-5.9-11.67-7.66-18.45-2.21-6.45,5.19-7.01,12.29-2.34,18.1,1.31,1.62,2.54,2.77,3.26,3.11l6.55-5.27-3.88-4.83,5.52-4.44,9.38,11.65-16.48,13.26Z"/><path d="m231.09,121.38l-10.66-.94-1.71-9.26,41.72,4.79,2.16,11.72-37.24,19.53-1.77-9.61,9.57-4.92-2.09-11.31Zm8.53,8.79l7.93-4.01c2.21-1.14,5.01-2.38,7.25-3.4l-.02-.12c-2.45-.15-5.55-.19-7.95-.41l-8.81-.8,1.61,8.73Z"/></svg>