<svg xmlns="http://www.w3.org/2000/svg" width="34.998" height="34.997" viewBox="0 0 34.998 34.997">
    <defs>
        <style>
            .a {
                fill: #00c800;
            }
        </style>
    </defs>
    <path class="a" d="M94.926,91.554a1.7,1.7,0,0,1-.371-.039c-.253-.062-.415-.16-2.89-1.759-1.31-.846-3.155-2.078-3.569-2.4a1.393,1.393,0,0,1-.556-1.813,2.367,2.367,0,0,1,.819-.85c.826-.611,5.661-3.749,6.016-3.905a1.676,1.676,0,0,1,.6-.091,1.214,1.214,0,0,1,.485.073,1.194,1.194,0,0,1,.508.6l.136.284.026,1.138.022,1.139.832-.013A10.431,10.431,0,0,0,99.2,83.74a2.945,2.945,0,0,0,2.395-2.7c.057-.961-.2-1.676-1.256-3.476l-.177-.3c-.416-.7-.416-.7-.216-.827.026-.016.055-.034.086-.055.359-.242,2.49-1.518,2.815-1.686l.254-.131.084.11c.108.14,1.049,1.72,1.379,2.316,1.516,2.73,1.828,5.382.88,7.465a6.4,6.4,0,0,1-3.407,3.082,12.89,12.89,0,0,1-4.746.779l-1.143.031-.022,1.121C96.1,90.5,96.1,90.6,96,90.806a1.25,1.25,0,0,1-.486.631A1.32,1.32,0,0,1,94.926,91.554ZM81.712,88.315c-3.73,0-4.715-.092-6.2-.578a6.939,6.939,0,0,1-2.876-1.7,5.434,5.434,0,0,1-1.58-2.986,9.348,9.348,0,0,1,0-2.447c.279-1.63.673-2.524,2.478-5.626a12.364,12.364,0,0,0,1.2-2.185c-.022-.017-.469-.322-1-.674-1.1-.725-1.352-.936-1.524-1.252a1.212,1.212,0,0,1,.175-1.327,1.716,1.716,0,0,1,.56-.39c.81-.381,5.643-2.35,6.384-2.6a2.251,2.251,0,0,1,.72-.12,1.739,1.739,0,0,1,1.43.662,1.555,1.555,0,0,1,.332.994c.059.636.059,6.626,0,7.044a1.216,1.216,0,0,1-1.2,1.109,1.452,1.452,0,0,1-.4-.058,5.545,5.545,0,0,1-1.423-.766l-.626-.4-.078.1c-.093.122-1.378,2.267-1.878,3.144a5.9,5.9,0,0,0-.718,1.625,3.038,3.038,0,0,0,.153,2.263,3.207,3.207,0,0,0,2,1.567,15.355,15.355,0,0,0,3.63.193c.973,0,2,.014,2.29.031l.53.027-.009,2.172-.013,2.171-1.8,0ZM99.862,72.962a5.136,5.136,0,0,1-1.542-.4c-1.508-.541-5.615-2.17-5.858-2.325a1.786,1.786,0,0,1-.643-.775.963.963,0,0,1,.049-.749,5.323,5.323,0,0,1,1.651-1.431,1.754,1.754,0,0,0,.455-.368c-.045-.115-2.037-3.418-2.343-3.884a5.984,5.984,0,0,0-1.571-1.615,3.087,3.087,0,0,0-1.577-.458,3.222,3.222,0,0,0-1.874.651,7.48,7.48,0,0,0-1.66,1.966c-.145.231-.214.325-.32.325a.678.678,0,0,1-.275-.1,31.972,31.972,0,0,1-3.064-1.917,7.235,7.235,0,0,1,.656-1.1,10.041,10.041,0,0,1,3.787-3.551,6.223,6.223,0,0,1,2.745-.663,7.073,7.073,0,0,1,4.913,2.257,18.109,18.109,0,0,1,2.741,3.839,11.47,11.47,0,0,0,1.282,2.024h0c.033-.014.466-.284.928-.578s1.051-.639,1.288-.758a1.251,1.251,0,0,1,.7-.2,1.235,1.235,0,0,1,1.143.823l.127.267v7.255l-.206.4a1.71,1.71,0,0,1-.968.963A1.563,1.563,0,0,1,99.862,72.962Z" transform="translate(-70.979 -56.557)" />
</svg>