<svg xmlns="http://www.w3.org/2000/svg" width="25" height="24.999" viewBox="0 0 25 24.999">
    <defs>
        <style>
            .a {
                fill: #00b856;
            }
        </style>
    </defs>
    <path class="a" d="M288,44.5A12.5,12.5,0,1,1,300.5,57,12.514,12.514,0,0,1,288,44.5Zm3.125,0a9.375,9.375,0,1,0,9.375-9.374A9.375,9.375,0,0,0,291.125,44.5Zm6.708,4.23L294.708,45.6a1.562,1.562,0,1,1,2.209-2.209l2.021,2.021,5.145-5.145a1.562,1.562,0,0,1,2.209,2.209l-6.251,6.249a1.56,1.56,0,0,1-2.209,0Z" transform="translate(-288 -32)" />
</svg>