<svg xmlns="http://www.w3.org/2000/svg" width="19.061" height="20.7" viewBox="0 0 19.061 20.7">
  <path id="Form_43" data-name="Form 43" d="M4.715,20.5a2.812,2.812,0,0,1-2.829-2.8V5.591H.943a.932.932,0,1,1,0-1.864H4.715V2.8A2.813,2.813,0,0,1,7.545,0h3.772a2.812,2.812,0,0,1,2.83,2.8v.931h3.772a.932.932,0,1,1,0,1.864h-.942V17.7a2.813,2.813,0,0,1-2.83,2.8Zm-.943-2.8a.938.938,0,0,0,.943.932h9.431a.938.938,0,0,0,.943-.932V5.591H3.772ZM12.26,3.727V2.8a.938.938,0,0,0-.943-.932H7.545A.938.938,0,0,0,6.6,2.8v.931ZM10.374,14.9V9.329a.943.943,0,1,1,1.885,0V14.9a.943.943,0,1,1-1.885,0ZM6.6,14.9V9.329a.943.943,0,1,1,1.886,0V14.9a.943.943,0,1,1-1.886,0Z" transform="translate(0.1 0.1)" fill="#fb2626" stroke="#fb2626" stroke-width="0.2"/>
</svg>
